PathFileType	4	(X/Y/Z)	pose_F01_0-96.trc
DataRate	CameraRate	NumFrames	NumMarkers	Units	OrigDataRate	OrigDataStartFrame	OrigNumFrames
30	30	8	21	m	30	48	96
Frame#	Time	CHip			RHip			RKnee			RAnkle			RBigToe			RSmallToe			RHeel			LHip			LKnee			LAnkle			LBigToe			LSmallToe			LHeel			Neck			Nose			RShoulder			RElbow			RWrist			LShoulder			LElbow			LWrist			
		X1	Y1	Z1	X2	Y2	Z2	X3	Y3	Z3	X4	Y4	Z4	X5	Y5	Z5	X6	Y6	Z6	X7	Y7	Z7	X8	Y8	Z8	X9	Y9	Z9	X10	Y10	Z10	X11	Y11	Z11	X12	Y12	Z12	X13	Y13	Z13	X14	Y14	Z14	X15	Y15	Z15	X16	Y16	Z16	X17	Y17	Z17	X18	Y18	Z18	X19	Y19	Z19	X20	Y20	Z20	X21	Y21	Z21	
48	1.6	-0.13444290887669302	1.8726952581939065	-0.41375904724961876	-0.13998024148373905	1.8683707535265552	-0.35121440835982454	-0.14984835554733872	1.7332557241803472	-0.32677299105932234	-0.13135981383018244	1.615128714110748	-0.3517621645055419							-0.12312533516857899	1.621005938097828	-0.315362999972652	-0.12882668427941296	1.8800040442113957	-0.47999830961021184	-0.13090555185740307	1.741488023069337	-0.4972445229436373	-0.09150239614152954	1.620308414799812	-0.5247134555539028	-0.12372268542204462	1.5866419074894758	-0.5245258366079645	-0.11082063304374798	1.593489017492259	-0.5432842295218105	-0.07557131163575427	1.6086187249206032	-0.5146906267117689	-0.1288349777734938	2.0209883428596114	-0.38634142099310614	-0.15334683341977542	2.0742176183837824	-0.36612828127920005	-0.13389561032506164	2.006782121041544	-0.29735942345809024	-0.17766901152918166	1.9593733676777942	-0.2872258314016348	-0.19196149371898186	2.019121847709768	-0.3198011335308863	-0.1248793742555468	2.0328512518605457	-0.4755817061686653	-0.10371227911018359	1.9796870937074598	-0.5500726193747445	-0.13753253304446272	1.9292491830442913	-0.5539935245146477
49	1.6333333333333333	-0.1337077797026363	1.8779077466349365	-0.4116293753521021	-0.14009554608043998	1.8698988467856583	-0.3516361040532295	-0.14711670066467253	1.7381330447777423	-0.32604770593237625	-0.13135981383018244	1.615128714110748	-0.3517621645055419							-0.12312533516857899	1.621005938097828	-0.315362999972652	-0.12614680658867883	1.883622025078331	-0.47064415157698236	-0.1263778137003941	1.7458284493004768	-0.4807309294062046	-0.09015025464196456	1.6222794792421167	-0.4998465675440217	-0.11948347499675631	1.5828355048395852	-0.5021346073003872	-0.10882151658345511	1.5908051065609616	-0.5277145530973124	-0.07879538226958717	1.6096598682491057	-0.4978435735220415	-0.12692183342182778	2.022212536763929	-0.3893320633391949	-0.15164524213109104	2.07473146278687	-0.36887636070305885	-0.13295273968846222	2.0123942842789084	-0.3048058420381103	-0.17381975510604927	1.963540017094447	-0.2760540826599742	-0.1864069747205373	2.0207301451410045	-0.30844973792278224	-0.12213093467909097	2.0364555176118	-0.47633390476854165	-0.1045811255746453	1.9899939963846613	-0.5554598004040637	-0.1411814296646955	1.9513348673621365	-0.5528623463167175
50	1.6666666666666667	-0.13350875779049085	1.8816666308601404	-0.4123169263646882	-0.13997702530138462	1.8749436407061368	-0.35264616101599966	-0.14499774464329737	1.736386354581695	-0.32833556452749446	-0.13135981383018244	1.615128714110748	-0.3517621645055419							-0.12312533516857899	1.621005938097828	-0.315362999972652	-0.12597375570050331	1.8874061491849714	-0.4712647906674735	-0.12285518183590255	1.7438049260259407	-0.47973005615064024	-0.0903593805678939	1.6139172828046584	-0.4944043963289285	-0.12288729771806	1.5809237683366262	-0.49362960790931587	-0.11190851561098061	1.5865597665577136	-0.5194062418327089	-0.0772525266574699	1.6040425503638018	-0.4807881818236883	-0.12491725797151777	2.0241231550759666	-0.39154567877551794	-0.14893585184069844	2.073697553308138	-0.36818586732521486	-0.12920930055114038	2.0147638680295077	-0.3091981551112966	-0.17180310733825385	1.9637640163632046	-0.27768300393177897	-0.18504903555091315	2.0295691444710298	-0.3154512979075524	-0.12189297684498536	2.0391677781200133	-0.4762954924978832	-0.11321559668839674	1.9940084696275784	-0.5587358714584522	-0.1561362736926676	1.9686477914312916	-0.5422881212809942
51	1.7	-0.13039435313604494	1.883252603766478	-0.42030267708976593	-0.13713073452566435	1.8752618168411956	-0.3606368296973227	-0.1423591389208198	1.738442208467534	-0.3271316457992752	-0.13135981383018244	1.615128714110748	-0.3517621645055419							-0.12312533516857899	1.621005938097828	-0.315362999972652	-0.12626721646671085	1.889073229304572	-0.483668811567135	-0.11983743438084893	1.7437772708395474	-0.4787736823490448	-0.0895567275264689	1.6114765305346226	-0.49071960626037636	-0.1226997551661741	1.5797513915407002	-0.4938477706668026	-0.11077655240328058	1.5852040188171357	-0.5162662115313352	-0.07648065304354112	1.6017044359260577	-0.4771228741924692	-0.12195521043142955	2.0253212994909577	-0.39947504050017124	-0.1466733691192535	2.074080272090207	-0.3696761493651742	-0.12285284747921701	2.013541587627973	-0.3210084203398318	-0.16825180562383477	1.969032994652232	-0.28375443201867967	-0.18097043985595568	2.0228432713533424	-0.31589203526447307	-0.11882221623009499	2.041976404391618	-0.48456784492868354	-0.11752322244310393	2.0089347881486783	-0.5488539181288111	-0.16462154359424142	2.0033709842922356	-0.5321976105986743
52	1.7333333333333334	-0.12854089721304965	1.8807561563023525	-0.42232896106031537	-0.13620996241746988	1.8751913550467547	-0.36644339894370426	-0.14222554777372196	1.7387693423798667	-0.33671098508079406	-0.13135981383018244	1.615128714110748	-0.3517621645055419							-0.12312533516857899	1.621005938097828	-0.315362999972652	-0.12536973484273875	1.8852080161008777	-0.48874653848904615	-0.1135451212395371	1.7451003536355918	-0.48621298419921205	-0.08779501339533513	1.6101687406690715	-0.4922804633451044	-0.12147104231473606	1.5793125565564166	-0.4994289246668117	-0.1093545849426451	1.5838788499852647	-0.5221388036114606	-0.07657074250995297	1.5999150882668525	-0.4764825040470071	-0.12075944863729898	2.025037732088795	-0.41319390740308126	-0.14218802987083212	2.073796886296104	-0.379518751387229	-0.12188128490301713	2.0075122315770404	-0.32424855735190333	-0.16594686125594238	1.966674497488575	-0.2900629722491859	-0.175889720085996	2.0200946450648263	-0.3148950685354408	-0.1136119629239022	2.0413780918552598	-0.4942568488654366	-0.1245159810751484	2.0201260447042624	-0.5473147258399781	-0.18643544389028954	2.0105289889570144	-0.5167505666244517
53	1.7666666666666666	-0.12367817700932517	1.8799774363840684	-0.4325436959934431	-0.13162430473521164	1.8743016838657893	-0.3764792403271853	-0.14322787391751318	1.7399729851493493	-0.3402303546592477	-0.13135981383018244	1.615128714110748	-0.3517621645055419							-0.12312533516857899	1.621005938097828	-0.315362999972652	-0.11838066779942534	1.885744114956147	-0.5015397050345255	-0.11089485169921623	1.7456057482769007	-0.48939677006776533	-0.08873087456174399	1.6084527497266623	-0.495159709083203	-0.1235146759170785	1.579856033969444	-0.5063469567238575	-0.11146334142773921	1.5824915574819558	-0.5283883397494952	-0.07516174659775048	1.5985315975059937	-0.48240377828743486	-0.11790418473760213	2.025428304117233	-0.4211024544403399	-0.14027858667925092	2.0720327993071725	-0.381220191757079	-0.1257928565995417	2.005859061736885	-0.33689387771364465	-0.16364191688805002	1.964316000324918	-0.2963715124796922	-0.1708090003160363	2.0173460187763097	-0.31389810180640854	-0.10840508234135862	2.0440136041961217	-0.5041840290236148	-0.1378734492221582	2.0196865196300586	-0.5665640946009214	-0.1926045937344528	2.025929737875888	-0.47875774652476855
54	1.8	-0.12330626835265057	1.8816473305422614	-0.4418351072860736	-0.12746448652535444	1.8758025414823833	-0.38132905528698385	-0.13953034869227487	1.739821005273239	-0.344898637617699	-0.13135981383018244	1.615128714110748	-0.3517621645055419							-0.12312533516857899	1.621005938097828	-0.315362999972652	-0.1160822459117163	1.885655870907813	-0.5039933993484429	-0.10831923084673147	1.7430957609965754	-0.49625788916061436	-0.08592598492151389	1.6087723880015379	-0.4940412750390401	-0.1244789772621954	1.579058788803132	-0.5005857111696678	-0.1105648376577007	1.5824097170007718	-0.5249167040824138	-0.07229393014822717	1.5988854587536627	-0.4812826009263463	-0.11211207206364235	2.0258581831828177	-0.42811534963348996	-0.13870357125117322	2.0708365070161836	-0.3920165367932603	-0.1181876406788222	2.0096673437498898	-0.3468066191791425	-0.16133697252015766	1.9619575031612613	-0.30268005271019843	-0.16572828054607658	2.0145973924877936	-0.31290113507737627	-0.10830329564121499	2.044028585847133	-0.5042745826297833	-0.14951535202189958	2.024607237291942	-0.5607284778217542	-0.1920692633050771	2.0303460599588834	-0.504449172884085
55	1.8333333333333333	-0.1230297156499594	1.880619360670138	-0.45065090696282645	-0.126541580072748	1.874555185362918	-0.3867464556614266	-0.13736850127603098	1.7385122035967584	-0.34719516435835535	-0.13135981383018244	1.615128714110748	-0.3517621645055419							-0.12312533516857899	1.621005938097828	-0.315362999972652	-0.11489645768371862	1.8833795728822207	-0.5092526206033332	-0.10611143579293521	1.7446246131752283	-0.49901799067097796	-0.08512808615055566	1.609353658867743	-0.4905573993851135	-0.12151648139255503	1.5794812633221462	-0.4994374506133323	-0.10958210417541984	1.5825564115188784	-0.5215326265846317	-0.07172262632930262	1.6006098442389687	-0.4776180922724183	-0.11110115890908179	2.0257834457147084	-0.4337634264279768	-0.13671625810344265	2.066076028789599	-0.39238610797502654	-0.11541809451568423	2.007767376241881	-0.3540648084969626	-0.15903202815226528	1.9595990059976043	-0.3089885929407047	-0.1606475607761169	2.011848766199277	-0.311904168348344	-0.10730705572066754	2.0415472686784852	-0.5094778658615577	-0.1542045887503694	2.0229548469709413	-0.5870970756297138	-0.18540746519719192	2.030691589458096	-0.4912114294315343
